<svg width="204" height="61" viewBox="0 0 204 61" fill="none" xmlns="http://www.w3.org/2000/svg">
<path d="M33.3955 0C18.1287 4.93887 5.2509 15.0074 0 30.01C5.19092 44.8416 17.9479 55.0225 33.3955 60.02C47.1319 49.861 54.6223 41.7025 60.1328 30.01C52.2233 24.9161 48.9007 22.2937 42.4881 14.4113C33.8962 18.2388 26.4175 22.6994 19.7926 29.8471C22.17 33.0955 26.1173 36.1278 29.3086 38.619C33.9596 35.3404 37.5065 32.1459 39.8041 29.4049C41.2447 31.0934 42.8691 32.2169 44.4162 33.1561C40.4198 39.6776 35.935 43.2581 30.3968 46.678C22.0783 42.4538 15.3916 35.1421 12.1418 28.9598C18.2331 19.3262 27.7872 12.8216 38.6432 9.19661C36.8844 6.24179 34.5791 3.49006 33.3955 0Z" fill="#FFD001"/>
<path d="M80.6274 44.7947C77.3103 44.7947 74.5323 44.1548 72.2933 42.875C70.0958 41.554 68.4373 39.2834 67.3178 36.0632C66.2397 32.8018 65.7007 28.2813 65.7007 22.5016C65.7007 16.7219 66.2397 12.222 67.3178 9.00186C68.3958 5.74046 69.9507 3.46987 71.9823 2.19008C74.014 0.869003 76.4811 0.208466 79.3835 0.208466C81.2493 0.208466 83.0322 0.332316 84.7322 0.580017C86.4736 0.82772 87.8005 1.1167 88.7126 1.44697V4.23361H80.6274C78.7615 4.23361 77.1237 4.74966 75.714 5.78175C74.3457 6.81384 73.2677 8.65095 72.4799 11.2931C71.6921 13.894 71.2982 17.6301 71.2982 22.5016C71.2982 27.3318 71.6921 31.0679 72.4799 33.7101C73.3092 36.3522 74.5116 38.1893 76.0872 39.2214C77.6628 40.2535 79.5908 40.7696 81.8713 40.7696H84.359V20.6438H89.9565V43.5562C89.0443 43.8452 87.7175 44.1135 85.9761 44.3612C84.2761 44.6502 82.4932 44.7947 80.6274 44.7947Z" fill="#333333"/>
<path d="M101.152 44.1755V0.827718H106.749V39.8407H122.298V44.1755H101.152Z" fill="#333333"/>
<path d="M128.512 44.4851V37.6733H134.11V44.4851H128.512Z" fill="#333333"/>
<path d="M153.385 44.7947C151.436 44.7947 149.736 44.547 148.285 44.0516C146.834 43.5149 145.714 42.586 144.927 41.265C144.139 39.9026 143.745 37.9829 143.745 35.5059V13.2128H149.342V35.5059C149.342 37.6527 149.902 39.1182 151.022 39.9026C152.141 40.687 153.551 41.0792 155.251 41.0792C156.039 41.0792 156.847 40.9553 157.676 40.7076C158.506 40.4187 159.148 40.1297 159.605 39.8407V13.2128H165.202V44.1755H160.537L160.226 42.3177H159.915C159.128 43.1021 158.153 43.7213 156.992 44.1755C155.831 44.5883 154.629 44.7947 153.385 44.7947Z" fill="#333333"/>
<path d="M184.458 44.7947C182.592 44.7947 180.954 44.5264 179.545 43.9897C178.176 43.453 177.098 42.4828 176.31 41.0792C175.523 39.6343 175.129 37.5701 175.129 34.8867C175.129 32.2858 175.523 30.3042 176.31 28.9418C177.098 27.5382 178.176 26.5887 179.545 26.0933C180.954 25.5566 182.592 25.2882 184.458 25.2882C185.412 25.2882 186.448 25.3502 187.568 25.474C188.729 25.5979 189.765 25.7423 190.677 25.9075V23.1208C190.677 20.3136 190.076 18.4764 188.874 17.6095C187.713 16.7425 186.034 16.3091 183.836 16.3091H177.617V13.832C178.57 13.5018 179.731 13.2128 181.099 12.9651C182.509 12.7174 183.836 12.5935 185.08 12.5935C187.568 12.5935 189.641 12.8825 191.299 13.4605C192.958 13.9972 194.202 15.0293 195.031 16.5568C195.86 18.043 196.275 20.231 196.275 23.1208V44.1755H191.61L191.299 42.3177H190.988C190.201 43.1021 189.226 43.7213 188.065 44.1755C186.904 44.5883 185.702 44.7947 184.458 44.7947ZM186.324 41.0792C187.112 41.0792 187.92 40.9553 188.749 40.7076C189.579 40.4187 190.221 40.1297 190.677 39.8407V29.0037H186.324C185.287 29.0037 184.334 29.1689 183.463 29.4992C182.634 29.8294 181.97 30.428 181.473 31.295C180.975 32.1207 180.726 33.3179 180.726 34.8867C180.726 36.538 180.975 37.8178 181.473 38.726C181.97 39.593 182.634 40.2122 183.463 40.5838C184.334 40.9141 185.287 41.0792 186.324 41.0792Z" fill="#333333"/>
<path d="M65.7007 59.8115V52.5428H66.2442C66.3004 52.7144 66.366 53.0072 66.3848 53.2394C66.769 52.7649 67.3312 52.4822 67.9872 52.4822H68.0715C69.3553 52.4822 70.2549 53.5423 70.2549 55.0364V55.2989C70.2549 56.793 69.3553 57.853 68.0715 57.853H67.9872C67.3312 57.853 66.7783 57.5804 66.3941 57.116V59.8115H65.7007ZM67.9216 57.1059H67.9965C68.9055 57.1059 69.524 56.369 69.524 55.2989V55.0364C69.524 53.9663 68.9055 53.2293 67.9965 53.2293H67.9216C67.0032 53.2293 66.3941 53.9764 66.3941 55.0364V55.2989C66.3941 56.369 67.0126 57.1059 67.9216 57.1059Z" fill="#333333"/>
<path d="M73.3586 57.853C72.0373 57.853 71.1096 56.793 71.1096 55.2989V55.0364C71.1096 53.5423 72.0373 52.4822 73.3586 52.4822H73.4523C74.7735 52.4822 75.7013 53.5423 75.7013 55.0364V55.2989C75.7013 56.793 74.7735 57.853 73.4523 57.853H73.3586ZM73.3679 57.1059H73.4429C74.3612 57.1059 74.9703 56.3589 74.9703 55.2989V55.0364C74.9703 53.9663 74.3519 53.2293 73.4429 53.2293H73.3679C72.459 53.2293 71.8405 53.9663 71.8405 55.0364V55.2989C71.8405 56.3589 72.4496 57.1059 73.3679 57.1059Z" fill="#333333"/>
<path d="M78.2619 57.853C77.4842 57.853 76.7626 57.4593 76.3503 56.6617L76.9219 56.2781C77.2124 56.8132 77.6247 57.1261 78.2901 57.1261H78.3838C79.0116 57.1261 79.4239 56.8132 79.4239 56.3387V56.2579C79.4239 55.733 79.0866 55.4604 78.4587 55.4604H77.7091V54.7739H78.4775C78.9273 54.7739 79.2271 54.4811 79.2271 54.047V53.9461C79.2271 53.512 78.8804 53.2192 78.365 53.2192H78.2901C77.681 53.2192 77.278 53.5221 77.0531 54.0571L76.444 53.6735C76.8001 52.9163 77.4561 52.4822 78.2901 52.4822H78.3838C79.3021 52.4822 79.9487 53.0476 79.9487 53.8552V53.9865C79.9487 54.4105 79.7519 54.7638 79.3958 55.0364C79.8831 55.3089 80.1548 55.7229 80.1548 56.2579V56.3791C80.1548 57.2574 79.4333 57.853 78.3557 57.853H78.2619Z" fill="#333333"/>
<path d="M81.2759 59.8115V52.5428H81.8194C81.8756 52.7144 81.9412 53.0072 81.9599 53.2394C82.3441 52.7649 82.9064 52.4822 83.5623 52.4822H83.6467C84.9305 52.4822 85.83 53.5423 85.83 55.0364V55.2989C85.83 56.793 84.9305 57.853 83.6467 57.853H83.5623C82.9064 57.853 82.3535 57.5804 81.9693 57.116V59.8115H81.2759ZM83.4967 57.1059H83.5717C84.4807 57.1059 85.0991 56.369 85.0991 55.2989V55.0364C85.0991 53.9663 84.4807 53.2293 83.5717 53.2293H83.4967C82.5784 53.2293 81.9693 53.9764 81.9693 55.0364V55.2989C81.9693 56.369 82.5878 57.1059 83.4967 57.1059Z" fill="#333333"/>
<path d="M88.9337 57.853C87.6125 57.853 86.6848 56.793 86.6848 55.2989V55.0364C86.6848 53.5423 87.6125 52.4822 88.9337 52.4822H89.0274C90.3487 52.4822 91.2764 53.5423 91.2764 55.0364V55.2989C91.2764 56.793 90.3487 57.853 89.0274 57.853H88.9337ZM88.9431 57.1059H89.0181C89.9364 57.1059 90.5455 56.3589 90.5455 55.2989V55.0364C90.5455 53.9663 89.927 53.2293 89.0181 53.2293H88.9431C88.0341 53.2293 87.4157 53.9663 87.4157 55.0364V55.2989C87.4157 56.3589 88.0248 57.1059 88.9431 57.1059Z" fill="#333333"/>
<path d="M94.5283 57.853C92.9634 57.853 92.1388 56.6516 92.1388 54.3297C92.1388 52.028 92.9447 50.9276 94.3316 50.5944C95.0906 50.4127 95.9714 50.3521 96.3556 50.3521V51.1497C95.7934 51.1497 95.1 51.2203 94.5002 51.3516C93.4507 51.5939 92.851 52.2299 92.7385 53.8249C93.0759 53.0678 93.7131 52.4923 94.5658 52.4923H94.6221C95.9433 52.4923 96.8148 53.5624 96.8148 55.0465V55.2989C96.8148 56.7829 95.8402 57.853 94.5752 57.853H94.5283ZM94.519 57.1059H94.5565C95.4373 57.1059 96.0839 56.3387 96.0839 55.2787V55.0263C96.0839 53.9663 95.4935 53.199 94.5752 53.199H94.5565C93.6381 53.199 92.9916 54.0167 92.9916 55.0768V55.2787C92.9916 56.3387 93.6381 57.1059 94.519 57.1059Z" fill="#333333"/>
<path d="M98.0407 57.7924V52.5428H98.7341V54.8345H98.7716L100.927 52.5428H101.808L99.4931 54.996L101.948 57.7924H101.002L98.781 55.1979H98.7341V57.7924H98.0407Z" fill="#333333"/>
<path d="M103.954 57.8732C103.008 57.8732 102.352 57.2574 102.352 56.3185V56.2478C102.352 55.1171 103.27 54.5619 105.144 54.5619H105.594V54.1985C105.594 53.5826 105.191 53.2091 104.498 53.2091H104.442C103.926 53.2091 103.355 53.4211 102.942 53.7745L102.596 53.1586C103.186 52.7245 103.804 52.452 104.488 52.452H104.545C105.632 52.452 106.288 53.1082 106.288 54.1379V56.9343C106.288 57.217 106.372 57.5703 106.456 57.7924H105.744C105.688 57.641 105.641 57.3684 105.613 57.1463C105.116 57.6208 104.545 57.8732 103.954 57.8732ZM103.992 57.1261C104.648 57.1261 105.21 56.8031 105.594 56.3084V55.2585H105.285C103.711 55.2585 103.064 55.5411 103.064 56.2377V56.2882C103.064 56.8031 103.439 57.1261 103.992 57.1261Z" fill="#333333"/>
<path d="M111.405 57.7924V53.2495H109.859V52.5428H113.645V53.2495H112.098V57.7924H111.405Z" fill="#333333"/>
<path d="M115.887 57.8732C114.941 57.8732 114.285 57.2574 114.285 56.3185V56.2478C114.285 55.1171 115.203 54.5619 117.077 54.5619H117.527V54.1985C117.527 53.5826 117.124 53.2091 116.431 53.2091H116.375C115.859 53.2091 115.288 53.4211 114.875 53.7745L114.529 53.1586C115.119 52.7245 115.737 52.452 116.421 52.452H116.478C117.565 52.452 118.221 53.1082 118.221 54.1379V56.9343C118.221 57.217 118.305 57.5703 118.389 57.7924H117.677C117.621 57.641 117.574 57.3684 117.546 57.1463C117.049 57.6208 116.478 57.8732 115.887 57.8732ZM115.925 57.1261C116.581 57.1261 117.143 56.8031 117.527 56.3084V55.2585H117.218C115.644 55.2585 114.997 55.5411 114.997 56.2377V56.2882C114.997 56.8031 115.372 57.1261 115.925 57.1261Z" fill="#333333"/>
<path d="M122.401 57.7924V52.5428H126.44V57.7924H125.746V53.2495H123.094V57.7924H122.401Z" fill="#333333"/>
<path d="M128.376 51.5232C128.113 51.5232 127.916 51.3112 127.916 51.0285C127.916 50.7458 128.113 50.5237 128.376 50.5237C128.638 50.5237 128.835 50.7458 128.835 51.0285C128.835 51.3112 128.638 51.5232 128.376 51.5232ZM128.029 57.7924V52.5428H128.722V57.7924H128.029Z" fill="#333333"/>
<path d="M129.661 59.0846V57.0857H130.026C130.448 56.8434 130.654 55.3998 130.654 52.5428H133.906V57.0857H134.543V59.0846H133.868V57.7924H130.335V59.0846H129.661ZM130.795 57.0857H133.212V53.2495H131.329C131.301 55.6421 131.094 56.8636 130.795 57.0857Z" fill="#333333"/>
<path d="M136.561 57.7924V53.2495H135.015V52.5428H138.801V53.2495H137.255V57.7924H136.561Z" fill="#333333"/>
<path d="M139.788 59.8115V52.5428H140.331C140.388 52.7144 140.453 53.0072 140.472 53.2394C140.856 52.7649 141.418 52.4822 142.074 52.4822H142.159C143.443 52.4822 144.342 53.5423 144.342 55.0364V55.2989C144.342 56.793 143.443 57.853 142.159 57.853H142.074C141.418 57.853 140.866 57.5804 140.481 57.116V59.8115H139.788ZM142.009 57.1059H142.084C142.993 57.1059 143.611 56.369 143.611 55.2989V55.0364C143.611 53.9663 142.993 53.2293 142.084 53.2293H142.009C141.091 53.2293 140.481 53.9764 140.481 55.0364V55.2989C140.481 56.369 141.1 57.1059 142.009 57.1059Z" fill="#333333"/>
<path d="M145.562 57.7924V52.5428H146.256V56.4699H146.349L148.936 52.5428H149.648V57.7924H148.955V53.8148H148.861L146.237 57.7924H145.562Z" fill="#333333"/>
<path d="M151.245 57.7924V52.5428H151.948L153.635 56.0358H153.728L155.415 52.5428H156.118V57.7924H155.424V54.1278H155.331L154.019 56.8838H153.344L152.032 54.1379H151.939V57.7924H151.245Z" fill="#333333"/>
<path d="M157.715 57.7924V52.5428H158.408V54.8345H158.446L160.601 52.5428H161.482L159.167 54.996L161.623 57.7924H160.676L158.455 55.1979H158.408V57.7924H157.715Z" fill="#333333"/>
<path d="M163.629 57.8732C162.682 57.8732 162.026 57.2574 162.026 56.3185V56.2478C162.026 55.1171 162.944 54.5619 164.819 54.5619H165.268V54.1985C165.268 53.5826 164.865 53.2091 164.172 53.2091H164.116C163.6 53.2091 163.029 53.4211 162.617 53.7745L162.27 53.1586C162.86 52.7245 163.479 52.452 164.163 52.452H164.219C165.306 52.452 165.962 53.1082 165.962 54.1379V56.9343C165.962 57.217 166.046 57.5703 166.131 57.7924H165.418C165.362 57.641 165.315 57.3684 165.287 57.1463C164.791 57.6208 164.219 57.8732 163.629 57.8732ZM163.666 57.1261C164.322 57.1261 164.884 56.8031 165.268 56.3084V55.2585H164.959C163.385 55.2585 162.738 55.5411 162.738 56.2377V56.2882C162.738 56.8031 163.113 57.1261 163.666 57.1261Z" fill="#333333"/>
<path d="M172.073 57.853C170.704 57.853 169.777 56.8132 169.777 55.2989V55.0364C169.777 53.5221 170.723 52.4822 172.054 52.4822H172.129C172.963 52.4822 173.694 52.9668 174.097 53.8047L173.534 54.1379C173.253 53.5423 172.747 53.2192 172.119 53.2192H172.026C171.107 53.2192 170.508 53.9461 170.508 55.0364V55.2989C170.508 56.3892 171.135 57.116 172.082 57.116H172.176C172.747 57.116 173.225 56.8031 173.525 56.2276L174.106 56.5608C173.666 57.3886 172.963 57.853 172.147 57.853H172.073Z" fill="#333333"/>
<path d="M176.468 57.8732C175.521 57.8732 174.865 57.2574 174.865 56.3185V56.2478C174.865 55.1171 175.783 54.5619 177.658 54.5619H178.107V54.1985C178.107 53.5826 177.704 53.2091 177.011 53.2091H176.955C176.439 53.2091 175.868 53.4211 175.456 53.7745L175.109 53.1586C175.699 52.7245 176.318 52.452 177.002 52.452H177.058C178.145 52.452 178.801 53.1082 178.801 54.1379V56.9343C178.801 57.217 178.885 57.5703 178.97 57.7924H178.257C178.201 57.641 178.154 57.3684 178.126 57.1463C177.63 57.6208 177.058 57.8732 176.468 57.8732ZM176.505 57.1261C177.161 57.1261 177.723 56.8031 178.107 56.3084V55.2585H177.798C176.224 55.2585 175.577 55.5411 175.577 56.2377V56.2882C175.577 56.8031 175.952 57.1261 176.505 57.1261Z" fill="#333333"/>
<path d="M180.983 50.5237H181.657C181.657 50.9982 181.957 51.3112 182.407 51.3112C182.857 51.3112 183.147 50.9982 183.147 50.5237H183.822C183.822 51.3617 183.269 51.9169 182.407 51.9169C181.545 51.9169 180.983 51.3617 180.983 50.5237ZM180.355 57.7924V52.5428H181.048V56.4699H181.142L183.728 52.5428H184.44V57.7924H183.747V53.8148H183.653L181.029 57.7924H180.355Z" fill="#333333"/>
<path d="M186.975 57.7924V53.2495H185.429V52.5428H189.214V53.2495H187.668V57.7924H186.975Z" fill="#333333"/>
<path d="M190.548 51.5232C190.286 51.5232 190.089 51.3112 190.089 51.0285C190.089 50.7458 190.286 50.5237 190.548 50.5237C190.81 50.5237 191.007 50.7458 191.007 51.0285C191.007 51.3112 190.81 51.5232 190.548 51.5232ZM190.201 57.7924V52.5428H190.895V57.7924H190.201Z" fill="#333333"/>
<path d="M192.489 57.7924V52.5428H194.551C195.441 52.5428 196.031 53.0779 196.031 53.8855V54.0268C196.031 54.4609 195.834 54.8143 195.516 55.0566C195.994 55.2787 196.275 55.7128 196.275 56.2175V56.3488C196.275 57.217 195.61 57.7924 194.635 57.7924H192.489ZM193.183 54.7739H194.56C195.01 54.7739 195.31 54.4811 195.31 54.0369V53.9865C195.31 53.5423 195.019 53.2495 194.569 53.2495H193.183V54.7739ZM193.183 57.0857H194.682C195.188 57.0857 195.544 56.7728 195.544 56.3185V56.2276C195.544 55.7632 195.207 55.4604 194.682 55.4604H193.183V57.0857Z" fill="#333333"/>
</svg>
