<svg width="123" height="40" viewBox="0 0 123 40" fill="none" xmlns="http://www.w3.org/2000/svg">
<path d="M22.2145 0C12.0591 3.29148 3.49287 10.0016 0 20C3.45297 29.8845 11.9388 36.6694 22.2145 40C31.3518 33.2296 36.3345 27.7924 40 20C34.7386 16.6052 32.5285 14.8576 28.2628 9.60432C22.5475 12.1552 17.5728 15.1279 13.1659 19.8915C14.7473 22.0563 17.373 24.0772 19.4959 25.7374C22.5897 23.5525 24.9491 21.4235 26.4774 19.5967C27.4357 20.722 28.5163 21.4708 29.5454 22.0967C26.887 26.4429 23.9037 28.8291 20.2198 31.1083C14.6863 28.2931 10.2384 23.4203 8.07663 19.3001C12.1286 12.8799 18.4839 8.5449 25.7052 6.12903C24.5353 4.15981 23.0018 2.32593 22.2145 0Z" fill="#FFD001"/>
<path d="M58.345 32C56.4906 32 54.9375 31.6412 53.6857 30.9236C52.4571 30.1829 51.5299 28.9097 50.904 27.1042C50.3013 25.2755 50 22.7407 50 19.5C50 16.2593 50.3013 13.7361 50.904 11.9306C51.5067 10.1019 52.376 8.8287 53.5119 8.11111C54.6477 7.37037 56.027 7 57.6496 7C58.6927 7 59.6895 7.06944 60.6399 7.20833C61.6135 7.34722 62.3553 7.50926 62.8653 7.69444V9.25694H58.345C57.3019 9.25694 56.3863 9.5463 55.5981 10.125C54.8332 10.7037 54.2305 11.7338 53.79 13.2153C53.3496 14.6736 53.1294 16.7685 53.1294 19.5C53.1294 22.2083 53.3496 24.3032 53.79 25.7847C54.2536 27.2662 54.9259 28.2963 55.8067 28.875C56.6876 29.4537 57.7655 29.7431 59.0404 29.7431H60.4313V18.4583H63.5607V31.3056C63.0507 31.4676 62.3089 31.6181 61.3353 31.7569C60.3849 31.919 59.3882 32 58.345 32Z" fill="#333333"/>
<path d="M69.8194 31.6528V7.34722H72.9488V29.2222H81.6416V31.6528H69.8194Z" fill="#333333"/>
<path d="M85.116 31.8264V28.0069H88.2453V31.8264H85.116Z" fill="#333333"/>
<path d="M99.0216 32C97.9321 32 96.9817 31.8611 96.1704 31.5833C95.3591 31.2824 94.7332 30.7616 94.2928 30.0208C93.8523 29.2569 93.6321 28.1806 93.6321 26.7917V14.2917H96.7615V26.7917C96.7615 27.9954 97.0744 28.8171 97.7003 29.2569C98.3262 29.6968 99.1143 29.9167 100.065 29.9167C100.505 29.9167 100.957 29.8472 101.421 29.7083C101.884 29.5463 102.244 29.3843 102.499 29.2222V14.2917H105.628V31.6528H103.02L102.846 30.6111H102.673C102.232 31.0509 101.687 31.3981 101.038 31.6528C100.389 31.8843 99.717 32 99.0216 32Z" fill="#333333"/>
<path d="M116.394 32C115.35 32 114.435 31.8495 113.647 31.5486C112.882 31.2477 112.279 30.7037 111.839 29.9167C111.398 29.1065 111.178 27.9491 111.178 26.4444C111.178 24.9861 111.398 23.875 111.839 23.1111C112.279 22.3241 112.882 21.7917 113.647 21.5139C114.435 21.213 115.35 21.0625 116.394 21.0625C116.927 21.0625 117.506 21.0972 118.132 21.1667C118.781 21.2361 119.361 21.3171 119.871 21.4097V19.8472C119.871 18.2731 119.534 17.2431 118.862 16.7569C118.213 16.2708 117.274 16.0278 116.046 16.0278H112.569V14.6389C113.102 14.4537 113.751 14.2917 114.516 14.1528C115.304 14.0139 116.046 13.9444 116.741 13.9444C118.132 13.9444 119.291 14.1065 120.218 14.4306C121.146 14.7315 121.841 15.3102 122.305 16.1667C122.768 17 123 18.2269 123 19.8472V31.6528H120.392L120.218 30.6111H120.044C119.604 31.0509 119.059 31.3981 118.41 31.6528C117.761 31.8843 117.089 32 116.394 32ZM117.437 29.9167C117.877 29.9167 118.329 29.8472 118.793 29.7083C119.256 29.5463 119.616 29.3843 119.871 29.2222V23.1458H117.437C116.857 23.1458 116.324 23.2384 115.837 23.4236C115.374 23.6088 115.003 23.9444 114.725 24.4306C114.446 24.8935 114.307 25.5648 114.307 26.4444C114.307 27.3704 114.446 28.088 114.725 28.5972C115.003 29.0833 115.374 29.4306 115.837 29.6389C116.324 29.8241 116.857 29.9167 117.437 29.9167Z" fill="#333333"/>
</svg>
