<svg width="35" height="36" viewBox="0 0 35 36" fill="none" xmlns="http://www.w3.org/2000/svg">
<path fill-rule="evenodd" clip-rule="evenodd" d="M0 18C0 8.33502 7.83502 0.5 17.5 0.5C27.165 0.5 35 8.33502 35 18C35 27.665 27.165 35.5 17.5 35.5C7.83502 35.5 0 27.665 0 18Z" fill="#3B5998"/>
<rect y="0.5" width="35" height="35" rx="5" fill="#3B5998"/>
<path fill-rule="evenodd" clip-rule="evenodd" d="M19.324 28.2896V18.7687H21.9522L22.3005 15.4877H19.324L19.3285 13.8456C19.3285 12.9899 19.4098 12.5313 20.6389 12.5313H22.2819V9.25H19.6533C16.496 9.25 15.3847 10.8416 15.3847 13.5182V15.4881H13.4166V18.7691H15.3847V28.2896H19.324Z" fill="white"/>
</svg>
