<svg width="40" height="40" viewBox="0 0 40 40" fill="none" xmlns="http://www.w3.org/2000/svg">
<path d="M30.6641 16.0781C28.4344 16.066 26.2853 16.9106 24.6604 18.4375H20.625V10.8311C20.6248 10.6332 20.7026 10.4431 20.8415 10.3022C20.9804 10.1613 21.1693 10.0807 21.3672 10.0781H21.5234C21.7213 10.0807 21.9102 10.1613 22.0491 10.3022C22.188 10.4431 22.2658 10.6332 22.2656 10.8311V13.6436C22.2656 14.1719 22.4755 14.6786 22.8491 15.0522C23.2227 15.4259 23.7295 15.6357 24.2578 15.6357C24.7862 15.6357 25.2929 15.4259 25.6665 15.0522C26.0401 14.6786 26.25 14.1719 26.25 13.6436V6.80762C26.25 6.64186 26.1842 6.48289 26.0669 6.36568C25.9497 6.24847 25.7908 6.18262 25.625 6.18262C25.4592 6.18262 25.3003 6.24847 25.1831 6.36568C25.0658 6.48289 25 6.64186 25 6.80762V13.6436C25 13.8404 24.9218 14.0292 24.7826 14.1684C24.6434 14.3075 24.4547 14.3857 24.2578 14.3857C24.061 14.3857 23.8722 14.3075 23.733 14.1684C23.5938 14.0292 23.5156 13.8404 23.5156 13.6436V10.8311C23.5154 10.3018 23.3058 9.79402 22.9326 9.41874C22.5593 9.04346 22.0527 8.83112 21.5234 8.82809H21.3672C20.8379 8.83112 20.3313 9.04346 19.958 9.41874C19.5848 9.79402 19.3752 10.3018 19.375 10.8311V18.4375H15.3396C13.7147 16.9106 11.5656 16.066 9.33594 16.0781C4.44656 16.0781 0.46875 20.0521 0.46875 24.9375C0.46875 29.8334 4.44656 33.8166 9.33594 33.8166C11.5337 33.8166 13.6527 32.9904 15.3305 31.4847H24.6696C25.7327 32.4592 27.0173 33.1597 28.4123 33.5256C29.8072 33.8914 31.2703 33.9116 32.6748 33.5844C34.0793 33.2572 35.3828 32.5924 36.4724 31.6477C37.5619 30.7029 38.4047 29.5067 38.9276 28.1628C39.4505 26.8188 39.6378 25.3676 39.4733 23.9349C39.3087 22.5022 38.7973 21.1313 37.9833 19.9409C37.1693 18.7505 36.0772 17.7765 34.8019 17.1034C33.5265 16.4303 32.1062 16.0784 30.6641 16.0781ZM30.6641 32.5625C28.7027 32.5625 26.813 31.7964 25.3431 30.4056C25.227 30.2957 25.0733 30.2345 24.9134 30.2346H15.0865C14.9267 30.2345 14.7729 30.2957 14.6568 30.4056C13.1841 31.799 11.2945 32.5664 9.33578 32.5664C5.13563 32.5664 1.71859 29.144 1.71859 24.9373C1.72188 22.9188 2.52571 20.9841 3.95372 19.5575C5.38173 18.131 7.3173 17.3291 9.33578 17.3279C10.3206 17.3221 11.2968 17.5114 12.2081 17.885C13.1193 18.2587 13.9475 18.8092 14.6447 19.5047C14.7619 19.6218 14.9207 19.6875 15.0863 19.6875H24.9135C25.0791 19.6875 25.238 19.6218 25.3552 19.5047C26.0524 18.8092 26.8806 18.2587 27.7918 17.8851C28.703 17.5115 29.6792 17.3222 30.6641 17.3281C32.6843 17.3281 34.6217 18.1306 36.0502 19.5591C37.4787 20.9876 38.2812 22.9251 38.2812 24.9453C38.2812 26.9655 37.4787 28.9029 36.0502 30.3314C34.6217 31.7599 32.6843 32.5625 30.6641 32.5625Z" fill="black"/>
<path d="M10.7812 24.0625H9.29688V22.5C9.29688 22.3342 9.23103 22.1753 9.11382 22.0581C8.99661 21.9408 8.83764 21.875 8.67188 21.875C8.50611 21.875 8.34714 21.9408 8.22993 22.0581C8.11272 22.1753 8.04688 22.3342 8.04688 22.5V24.0625H6.48438C6.31861 24.0625 6.15964 24.1283 6.04243 24.2456C5.92522 24.3628 5.85938 24.5217 5.85938 24.6875C5.85938 24.8533 5.92522 25.0122 6.04243 25.1294C6.15964 25.2467 6.31861 25.3125 6.48438 25.3125H8.04688V26.7969C8.04688 26.9626 8.11272 27.1216 8.22993 27.2388C8.34714 27.356 8.50611 27.4219 8.67188 27.4219C8.83764 27.4219 8.99661 27.356 9.11382 27.2388C9.23103 27.1216 9.29688 26.9626 9.29688 26.7969V25.3125H10.7812C10.947 25.3125 11.106 25.2467 11.2232 25.1294C11.3404 25.0122 11.4062 24.8533 11.4062 24.6875C11.4062 24.5217 11.3404 24.3628 11.2232 24.2456C11.106 24.1283 10.947 24.0625 10.7812 24.0625Z" fill="black"/>
<path d="M31.0156 23.4158C31.3965 23.4158 31.7689 23.3028 32.0857 23.0912C32.4024 22.8795 32.6492 22.5787 32.795 22.2268C32.9408 21.8749 32.9789 21.4876 32.9046 21.114C32.8303 20.7404 32.6469 20.3972 32.3775 20.1278C32.1082 19.8585 31.765 19.675 31.3914 19.6007C31.0178 19.5264 30.6305 19.5646 30.2786 19.7103C29.9266 19.8561 29.6258 20.103 29.4142 20.4197C29.2026 20.7364 29.0896 21.1088 29.0896 21.4897C29.0902 22.0004 29.2933 22.4899 29.6544 22.851C30.0154 23.2121 30.505 23.4152 31.0156 23.4158ZM31.0156 20.8137C31.1493 20.8137 31.28 20.8534 31.3912 20.9277C31.5024 21.0019 31.589 21.1075 31.6402 21.231C31.6913 21.3546 31.7047 21.4905 31.6786 21.6216C31.6526 21.7528 31.5882 21.8732 31.4936 21.9678C31.3991 22.0623 31.2786 22.1267 31.1475 22.1528C31.0164 22.1788 30.8804 22.1655 30.7569 22.1143C30.6334 22.0631 30.5278 21.9765 30.4535 21.8653C30.3792 21.7541 30.3396 21.6234 30.3396 21.4897C30.3398 21.3105 30.4111 21.1387 30.5378 21.0119C30.6646 20.8852 30.8364 20.8139 31.0156 20.8137Z" fill="black"/>
<path d="M31.0157 26.51C30.6347 26.51 30.2623 26.6229 29.9455 26.8346C29.6288 27.0462 29.3819 27.347 29.2361 27.699C29.0903 28.0509 29.0522 28.4382 29.1265 28.8118C29.2008 29.1855 29.3842 29.5287 29.6536 29.7981C29.923 30.0674 30.2662 30.2509 30.6398 30.3252C31.0135 30.3995 31.4007 30.3614 31.7527 30.2156C32.1046 30.0698 32.4055 29.8229 32.6171 29.5061C32.8287 29.1894 32.9417 28.817 32.9417 28.436C32.9411 27.9254 32.738 27.4358 32.3769 27.0748C32.0158 26.7137 31.5263 26.5106 31.0157 26.51ZM31.0157 29.1121C30.8819 29.1121 30.7512 29.0725 30.64 28.9982C30.5288 28.9239 30.4421 28.8183 30.391 28.6948C30.3398 28.5713 30.3264 28.4353 30.3525 28.3042C30.3785 28.173 30.4429 28.0525 30.5375 27.958C30.632 27.8634 30.7525 27.799 30.8836 27.7729C31.0148 27.7468 31.1507 27.7602 31.2743 27.8114C31.3978 27.8626 31.5034 27.9492 31.5777 28.0604C31.652 28.1716 31.6917 28.3023 31.6917 28.436C31.6915 28.6153 31.6202 28.7871 31.4935 28.9139C31.3667 29.0406 31.1949 29.1119 31.0157 29.1121Z" fill="black"/>
<path d="M34.4888 23.0369C34.1078 23.0368 33.7354 23.1498 33.4187 23.3614C33.1019 23.5731 32.855 23.8739 32.7093 24.2258C32.5635 24.5778 32.5253 24.9651 32.5996 25.3387C32.6739 25.7123 32.8574 26.0555 33.1268 26.3249C33.3961 26.5943 33.7393 26.7777 34.113 26.852C34.4866 26.9264 34.8739 26.8882 35.2258 26.7424C35.5778 26.5966 35.8786 26.3497 36.0902 26.033C36.3019 25.7162 36.4148 25.3438 36.4148 24.9629C36.4142 24.4522 36.2111 23.9627 35.8501 23.6016C35.489 23.2405 34.9994 23.0374 34.4888 23.0369ZM34.4888 25.639C34.3551 25.639 34.2244 25.5994 34.1132 25.5251C34.002 25.4508 33.9153 25.3452 33.8641 25.2217C33.8129 25.0981 33.7995 24.9622 33.8256 24.831C33.8517 24.6999 33.9161 24.5794 34.0106 24.4848C34.1052 24.3903 34.2256 24.3259 34.3568 24.2998C34.4879 24.2737 34.6239 24.2871 34.7474 24.3382C34.871 24.3894 34.9766 24.4761 35.0509 24.5873C35.1252 24.6984 35.1648 24.8292 35.1648 24.9629C35.1646 25.1421 35.0933 25.3139 34.9666 25.4407C34.8399 25.5674 34.668 25.6387 34.4888 25.639Z" fill="black"/>
<path d="M27.5425 23.0369C27.1616 23.0369 26.7892 23.1499 26.4725 23.3616C26.1557 23.5732 25.9089 23.874 25.7631 24.226C25.6174 24.578 25.5793 24.9652 25.6536 25.3388C25.728 25.7125 25.9114 26.0556 26.1808 26.325C26.4502 26.5943 26.7934 26.7778 27.167 26.8521C27.5406 26.9264 27.9279 26.8882 28.2798 26.7424C28.6318 26.5966 28.9326 26.3497 29.1442 26.033C29.3558 25.7162 29.4688 25.3438 29.4688 24.9629C29.4682 24.4522 29.2651 23.9626 28.9039 23.6015C28.5428 23.2405 28.0532 23.0374 27.5425 23.0369ZM27.5425 25.639C27.4088 25.639 27.2781 25.5993 27.1669 25.525C27.0557 25.4507 26.9691 25.3451 26.9179 25.2216C26.8667 25.0981 26.8533 24.9621 26.8794 24.831C26.9055 24.6998 26.9699 24.5794 27.0644 24.4848C27.159 24.3903 27.2795 24.3259 27.4106 24.2998C27.5418 24.2737 27.6777 24.2871 27.8012 24.3383C27.9248 24.3894 28.0304 24.4761 28.1047 24.5873C28.179 24.6984 28.2186 24.8292 28.2186 24.9629C28.2184 25.1421 28.1471 25.314 28.0204 25.4407C27.8936 25.5675 27.7218 25.6388 27.5425 25.639Z" fill="black"/>
<path d="M25 26.0938C25 25.928 24.9342 25.769 24.8169 25.6518C24.6997 25.5346 24.5408 25.4688 24.375 25.4688H15.7031C15.5374 25.4688 15.3784 25.5346 15.2612 25.6518C15.144 25.769 15.0781 25.928 15.0781 26.0938V28.2812C15.0781 28.447 15.144 28.606 15.2612 28.7232C15.3784 28.8404 15.5374 28.9062 15.7031 28.9062H24.375C24.5408 28.9062 24.6997 28.8404 24.8169 28.7232C24.9342 28.606 25 28.447 25 28.2812V26.0938ZM16.3281 26.7188H19.375V27.6562H16.3281V26.7188ZM23.6719 27.6562H20.625V26.7188H23.6719V27.6562Z" fill="black"/>
</svg>
