<svg width="40" height="40" viewBox="0 0 40 40" fill="none" xmlns="http://www.w3.org/2000/svg">
<g clip-path="url(#clip0_1_5324)">
<path d="M10.4702 24.179C12.3482 25.9653 13.251 28.6052 12.8836 31.2223L12.772 32.0926H10.6259C10.262 32.0926 9.96697 32.3877 9.96697 32.7516C9.96697 33.1155 10.262 33.4105 10.6259 33.4105H29.3149C29.6788 33.4105 29.9738 33.1155 29.9738 32.7516C29.9738 32.3877 29.6788 32.0926 29.3149 32.0926H27.293L27.2091 30.4807C27.0698 28.065 27.9472 25.7661 29.6154 24.1883C32.4207 21.5393 34.0114 17.8518 34.0127 13.9934C34.0291 10.1421 32.4423 6.45777 29.6321 3.82427C26.7998 1.14959 23.083 -0.200465 19.1628 0.0241142C15.7124 0.257703 12.4702 1.75833 10.059 4.23739C7.61564 6.73479 6.20124 9.99699 6.07576 13.422C5.9136 17.4747 7.51686 21.3987 10.4702 24.179ZM20.8591 9.14951C20.4061 9.60188 19.6725 9.60188 19.2198 9.14918C18.7674 8.69649 18.7674 7.96258 19.2198 7.50988C19.6725 7.05718 20.4061 7.05718 20.8591 7.50956C21.3111 7.9629 21.3111 8.69616 20.8591 9.14951ZM7.39299 13.4719C7.51686 10.3477 8.80385 7.38279 11.0011 5.15855C13.1835 2.91244 16.1191 1.55209 19.2439 1.33813C22.7931 1.13479 26.1615 2.3571 28.7274 4.78018C31.2727 7.16529 32.7103 10.5025 32.6949 13.9905C32.6936 17.485 31.2525 20.8241 28.711 23.2224C26.7589 25.0692 25.7316 27.752 25.8934 30.5531L25.9736 32.0926H24.2397V22.7851H26.285C26.6586 22.7691 26.9539 22.4634 26.9578 22.0895V15.8486C27.3693 15.7357 27.7441 15.5162 28.0437 15.2119C28.8387 14.4194 29.0028 13.1919 28.4436 12.2183C27.8847 11.245 26.7416 10.7682 25.6563 11.0555C24.5714 11.3429 23.8143 12.3232 23.8105 13.4458C23.8066 14.5684 24.5566 15.5539 25.6399 15.8486V21.4673H23.5971C23.2332 21.4673 22.9218 21.7256 22.9218 22.0895V32.0926H20.6979V10.7167C21.1113 10.6038 21.4881 10.3847 21.7909 10.0816C22.5852 9.28947 22.7493 8.06297 22.1911 7.09C21.6329 6.11704 20.4913 5.63957 19.4067 5.92528C18.3221 6.21099 17.5641 7.1891 17.5576 8.31071C17.5515 9.43232 18.2986 10.4188 19.38 10.7167V32.0926H17.1561V22.0895C17.1561 21.7256 16.8446 21.4673 16.4807 21.4673H14.438V15.8486C15.5177 15.5552 16.2661 14.5735 16.2632 13.4545C16.26 12.3351 15.5058 11.3577 14.4244 11.0703C13.3427 10.783 12.2031 11.2576 11.6449 12.2273C11.0866 13.1974 11.2491 14.4213 12.0409 15.2119H12.0339C12.3337 15.5159 12.7083 15.7357 13.1201 15.8486V22.0895C13.1236 22.4634 13.4193 22.7691 13.7929 22.7851H15.8382V32.0926H14.1011L14.1896 31.399C14.6149 28.3681 13.5641 25.3102 11.3762 23.2288C8.69832 20.7067 7.24563 17.1475 7.39299 13.4719ZM26.285 14.6198C25.7316 14.6198 25.2554 14.2289 25.1476 13.6861C25.0395 13.1437 25.3301 12.6006 25.8413 12.3889C26.3523 12.1771 26.9417 12.3557 27.2493 12.8158C27.5566 13.2759 27.4961 13.8888 27.1051 14.2801C26.888 14.4982 26.5926 14.6205 26.285 14.6198ZM13.7929 14.6198C13.4853 14.6205 13.1899 14.4982 12.9727 14.2801C12.5815 13.8888 12.5213 13.2756 12.8286 12.8158C13.1359 12.3557 13.7256 12.1768 14.2365 12.3885C14.7478 12.6002 15.0383 13.1437 14.9302 13.6861C14.8225 14.2289 14.3463 14.6198 13.7929 14.6198Z" fill="black"/>
<path d="M28.3262 36.0464C28.3262 35.6825 28.0314 35.3875 27.6672 35.3875H12.2729C11.909 35.3875 11.614 35.6825 11.614 36.0464C11.614 36.4103 11.909 36.7053 12.2729 36.7053H27.6672C28.0314 36.7053 28.3262 36.4103 28.3262 36.0464Z" fill="black"/>
<path d="M13.9206 38.6821C13.5567 38.6821 13.2617 38.9772 13.2617 39.3411C13.2617 39.705 13.5567 40 13.9206 40H26.0202C26.3841 40 26.6792 39.705 26.6792 39.3411C26.6792 38.9772 26.3841 38.6821 26.0202 38.6821H13.9206Z" fill="black"/>
</g>
<defs>
<clipPath id="clip0_1_5324">
<rect width="40" height="40" fill="white"/>
</clipPath>
</defs>
</svg>
