<svg width="35" height="36" viewBox="0 0 35 36" fill="none" xmlns="http://www.w3.org/2000/svg">
<path fill-rule="evenodd" clip-rule="evenodd" d="M0 18C0 8.33502 7.83502 0.5 17.5 0.5C27.165 0.5 35 8.33502 35 18C35 27.665 27.165 35.5 17.5 35.5C7.83502 35.5 0 27.665 0 18Z" fill="url(#paint0_linear_1_690)"/>
<rect y="0.5" width="35" height="35" rx="5" fill="url(#paint1_linear_1_690)"/>
<path fill-rule="evenodd" clip-rule="evenodd" d="M12.7078 18C12.7078 15.353 14.8539 13.2069 17.5009 13.2069C20.1478 13.207 22.2933 15.353 22.2933 18C22.2933 20.647 20.1479 22.7921 17.5009 22.7921C14.8539 22.7921 12.7078 20.647 12.7078 18ZM20.612 18.0002C20.612 16.2819 19.219 14.8891 17.5009 14.8891C15.7826 14.8891 14.3898 16.2819 14.3898 18.0002C14.3898 19.7184 15.7826 21.1114 17.5009 21.1114C19.219 21.1114 20.612 19.7184 20.612 18.0002Z" fill="white"/>
<path d="M21.363 13.0181C21.363 12.3995 21.8646 11.8985 22.483 11.8985C23.1013 11.8985 23.603 12.3997 23.603 13.0181C23.603 13.6364 23.1013 14.1381 22.483 14.1381C21.8646 14.1381 21.363 13.6364 21.363 13.0181Z" fill="white"/>
<path fill-rule="evenodd" clip-rule="evenodd" d="M13.6523 8.72306C14.6479 8.67775 14.966 8.66667 17.5008 8.66667H17.4979C20.0335 8.66667 20.3504 8.67775 21.346 8.72306C22.3396 8.76856 23.0183 8.92587 23.6133 9.15667C24.2277 9.39487 24.7469 9.71376 25.2661 10.2329C25.7852 10.7517 26.1041 11.2724 26.3433 11.8863C26.5727 12.4798 26.7302 13.158 26.7769 14.1516C26.8216 15.1472 26.8333 15.4653 26.8333 18.0001C26.8333 20.5349 26.8216 20.8522 26.7769 21.8478C26.7302 22.841 26.5727 23.5195 26.3433 24.1131C26.1041 24.7268 25.7852 25.2475 25.2661 25.7663C24.7475 26.2855 24.2275 26.6051 23.6138 26.8435C23.02 27.0743 22.341 27.2316 21.3474 27.2771C20.3518 27.3224 20.0347 27.3335 17.4997 27.3335C14.9651 27.3335 14.6471 27.3224 13.6516 27.2771C12.6581 27.2316 11.9797 27.0743 11.3859 26.8435C10.7724 26.6051 10.2517 26.2855 9.73309 25.7663C9.21411 25.2475 8.89522 24.7268 8.65663 24.1129C8.42602 23.5195 8.26871 22.8412 8.22302 21.8476C8.1779 20.852 8.16663 20.5349 8.16663 18.0001C8.16663 15.4653 8.17829 15.147 8.22282 14.1514C8.26754 13.1582 8.42505 12.4798 8.65644 11.8861C8.89561 11.2724 9.2145 10.7517 9.73367 10.2329C10.2525 9.71396 10.7732 9.39506 11.387 9.15667C11.9805 8.92587 12.6587 8.76856 13.6523 8.72306ZM17.1898 10.3486C17.0011 10.3485 16.8262 10.3484 16.6636 10.3486V10.3463C14.9241 10.3483 14.5904 10.3599 13.7294 10.3988C12.8194 10.4406 12.3253 10.5923 11.9963 10.7206C11.5607 10.8902 11.2496 11.0924 10.9229 11.4191C10.5963 11.7457 10.3937 12.0569 10.2245 12.4924C10.0967 12.8214 9.94468 13.3153 9.90307 14.2253C9.85835 15.2092 9.84941 15.5032 9.84941 17.9956C9.84941 20.4881 9.85835 20.7836 9.90307 21.7675C9.94449 22.6775 10.0967 23.1714 10.2245 23.5C10.3941 23.9358 10.5963 24.2461 10.9229 24.5728C11.2496 24.8995 11.5607 25.1017 11.9963 25.2709C12.3255 25.3986 12.8194 25.5507 13.7294 25.5927C14.7133 25.6374 15.0087 25.6471 17.5009 25.6471C19.9929 25.6471 20.2885 25.6374 21.2724 25.5927C22.1824 25.5511 22.6767 25.3994 23.0053 25.2711C23.441 25.1019 23.7512 24.8997 24.0778 24.573C24.4045 24.2465 24.6071 23.9364 24.7763 23.5008C24.904 23.1722 25.0561 22.6783 25.0977 21.7683C25.1424 20.7844 25.1521 20.4888 25.1521 17.998C25.1521 15.5071 25.1424 15.2116 25.0977 14.2277C25.0563 13.3177 24.904 12.8238 24.7763 12.4951C24.6067 12.0596 24.4045 11.7485 24.0778 11.4218C23.7514 11.0951 23.4408 10.8929 23.0053 10.7237C22.6763 10.596 22.1824 10.4439 21.2724 10.4023C20.2883 10.3576 19.9929 10.3486 17.5009 10.3486L17.1898 10.3486Z" fill="white"/>
<defs>
<linearGradient id="paint0_linear_1_690" x1="29.4014" y1="35.5" x2="6.53485" y2="0.500001" gradientUnits="userSpaceOnUse">
<stop stop-color="#E09B3D"/>
<stop offset="0.3" stop-color="#C74C4D"/>
<stop offset="0.6" stop-color="#C21975"/>
<stop offset="1" stop-color="#7024C4"/>
</linearGradient>
<linearGradient id="paint1_linear_1_690" x1="29.4014" y1="35.5" x2="6.53485" y2="0.500001" gradientUnits="userSpaceOnUse">
<stop stop-color="#E09B3D"/>
<stop offset="0.3" stop-color="#C74C4D"/>
<stop offset="0.6" stop-color="#C21975"/>
<stop offset="1" stop-color="#7024C4"/>
</linearGradient>
</defs>
</svg>
