<svg width="40" height="40" viewBox="0 0 40 40" fill="none" xmlns="http://www.w3.org/2000/svg">
<g clip-path="url(#clip0_1_5332)">
<path d="M40 1.62038C40 1.21691 39.6379 0.91333 39.2344 0.91333H0.765554C0.362086 0.91333 0 1.21691 0 1.62038V32.3178C0.0156963 32.7298 0.352811 33.057 0.765554 33.0595H13.9369L12.647 37.6257H10.351C9.9472 37.6257 9.62043 37.9528 9.62043 38.3563C9.62043 38.7597 9.9472 39.0868 10.351 39.0868H29.649C30.0528 39.0868 30.3796 38.7597 30.3796 38.3563C30.3796 37.9528 30.0528 37.6257 29.649 37.6257H27.353L26.0631 33.0595H39.2344C39.6472 33.057 39.9843 32.7298 40 32.3178V1.62038ZM1.46119 2.37452H38.5388V25.2056H1.46119V2.37452ZM25.8355 37.6257H14.1645L15.4545 33.0595H24.5452L25.8355 37.6257ZM38.5388 31.5983H1.46119V26.6668H38.5388V31.5983Z" fill="black"/>
<path d="M32.4925 4.84009H23.7914C23.4528 4.84473 23.1172 4.90858 22.8004 5.0288L20.4916 5.87533C20.1744 5.99199 19.8263 5.99306 19.5084 5.8789L17.1996 5.02702C16.8825 4.90751 16.5472 4.84401 16.2086 4.84009H7.5075C7.09511 4.85186 6.76477 5.18612 6.758 5.59886V21.6202C6.76477 22.0319 7.09582 22.3651 7.5075 22.3743H16.2086C16.3756 22.3701 16.5418 22.3957 16.7002 22.4492L19.009 23.2829C19.6497 23.5127 20.351 23.5112 20.9907 23.2783L23.2994 22.45C23.4578 22.3961 23.6241 22.3704 23.791 22.3743H32.4922C32.9042 22.3651 33.2352 22.0322 33.242 21.6202V5.59886C33.2352 5.18612 32.9049 4.85186 32.4925 4.84009ZM17.1996 21.0758C16.8814 20.9642 16.5457 20.9089 16.2086 20.9131H8.21918V6.30128H16.2086C16.377 6.30591 16.5432 6.3398 16.7002 6.40187L19.009 7.24841C19.0946 7.27944 19.1817 7.31333 19.2694 7.33616V21.8171L17.1996 21.0758ZM31.7808 20.9131H23.7914C23.4543 20.9089 23.1186 20.9642 22.8004 21.0758L20.7306 21.8171V7.33652C20.8184 7.31369 20.9054 7.28693 20.991 7.25554L23.2998 6.40187C23.4568 6.34016 23.623 6.30627 23.7914 6.30163H31.7808V20.9131Z" fill="black"/>
<path d="M22.6477 9.31507C22.6477 9.71853 22.9748 10.0457 23.3783 10.0457H26.1526C26.5564 10.0457 26.8832 9.71853 26.8832 9.31507C26.8832 8.9116 26.5564 8.58447 26.1526 8.58447H23.3783C22.9748 8.58447 22.6477 8.9116 22.6477 9.31507Z" fill="black"/>
<path d="M22.6477 12.1461C22.6477 12.5496 22.9748 12.8767 23.3783 12.8767H29.4239C29.8273 12.8767 30.1545 12.5496 30.1545 12.1461C30.1545 11.7427 29.8273 11.4155 29.4239 11.4155H23.3783C22.9748 11.4155 22.6477 11.7427 22.6477 12.1461Z" fill="black"/>
<path d="M29.4239 14.3379H23.3783C22.9748 14.3379 22.6477 14.665 22.6477 15.0685C22.6477 15.472 22.9748 15.7991 23.3783 15.7991H29.4239C29.8273 15.7991 30.1545 15.472 30.1545 15.0685C30.1545 14.665 29.8273 14.3379 29.4239 14.3379Z" fill="black"/>
<path d="M29.4239 17.1689H23.3783C22.9748 17.1689 22.6477 17.4961 22.6477 17.8995C22.6477 18.303 22.9748 18.6301 23.3783 18.6301H29.4239C29.8273 18.6301 30.1545 18.303 30.1545 17.8995C30.1545 17.4961 29.8273 17.1689 29.4239 17.1689Z" fill="black"/>
</g>
<defs>
<clipPath id="clip0_1_5332">
<rect width="40" height="40" fill="white"/>
</clipPath>
</defs>
</svg>
