<svg width="40" height="40" viewBox="0 0 40 40" fill="none" xmlns="http://www.w3.org/2000/svg">
<g clip-path="url(#clip0_1_1083)">
<path d="M39.3698 31.1476H38.2787V10.8444C38.2697 8.64888 36.4827 6.87666 34.2876 6.88531H30.9016V6.03298C30.9016 5.85175 30.8357 5.6558 30.7169 5.57383H30.7207L26.9774 1.8264L26.9781 1.82896C26.8555 1.70665 26.689 1.63845 26.5154 1.63941H16.4508C16.2801 1.63877 16.1168 1.70729 15.9977 1.8296C15.8786 1.95191 15.8146 2.11713 15.8197 2.28779V6.88531H14.7214L14.7221 6.21004C14.7224 6.08677 14.6888 5.96542 14.6248 5.86008L12.4609 2.33998C12.3422 2.1453 12.1308 2.02684 11.9029 2.0262C11.6752 2.02588 11.4636 2.1437 11.3438 2.33774L9.18034 5.85464C9.11663 5.96222 9.08301 6.08517 9.08301 6.21004L9.08397 6.88531H5.71275C3.51725 6.87666 1.7303 8.64888 1.72134 10.8444V31.1476H0.630153C0.268025 31.1476 3.10145e-05 31.4677 3.10145e-05 31.8299V34.3872C-0.00413137 35.4393 0.410827 36.4498 1.15301 37.1952C1.8952 37.9409 2.90378 38.3603 3.95558 38.3607H36.0444C37.0965 38.3603 38.1051 37.9409 38.8473 37.1952C39.5895 36.4495 40.0045 35.439 40 34.3869V31.8296C40 31.4677 39.732 31.1476 39.3698 31.1476ZM27.1311 3.87078L28.6776 5.4099H27.1311V3.87078ZM17.1312 2.95089H25.8197V6.03298C25.8357 6.40919 26.1392 6.70953 26.5154 6.72137H29.5901V19.6722H17.1312V2.95089ZM30.2609 20.9836C30.4335 20.982 30.5987 20.9116 30.7191 20.7874C30.8395 20.6635 30.9051 20.4966 30.9016 20.3237V11.7214H33.6885V28.1148H6.3115V11.7214H9.09005L9.09838 18.1926C9.09742 19.7417 10.3522 20.9981 11.9013 20.9993C13.4503 21.0003 14.707 19.7455 14.708 18.1964L14.7154 11.7214H15.8197V20.3237C15.8139 20.4954 15.8776 20.6622 15.9964 20.7864C16.1152 20.9106 16.2791 20.9817 16.4508 20.9836H30.2609ZM13.3991 15.6558H10.4063L10.3958 6.88531H13.41L13.3991 15.6558ZM13.3978 16.9673L13.3962 18.1929C13.3815 19.0062 12.7184 19.6581 11.9048 19.659C11.0915 19.6603 10.4268 19.01 10.4099 18.1968L10.4083 16.9673H13.3978ZM15.8197 8.19678V10.4099H14.717L14.7198 8.19678H15.8197ZM11.9029 3.96395L12.8935 5.57383H10.9125L11.9029 3.96395ZM3.03281 10.8444C3.04114 9.37314 4.24119 8.18718 5.71275 8.19678H9.08589L9.08845 10.4099H5.66889C5.30676 10.4099 5.00002 10.6737 5.00002 11.0359V28.7676C5.00611 29.133 5.30356 29.4259 5.66889 29.4263H34.3311C34.6964 29.4259 34.9942 29.133 35 28.7676V11.0359C35 10.6737 34.6936 10.4099 34.3311 10.4099H30.9016V8.19678H34.2876C35.7588 8.18718 36.9589 9.37314 36.9672 10.8444V31.1476H24.8786C24.6936 31.1527 24.5191 31.234 24.3964 31.3723L23.7215 32.0976C23.2146 32.6431 22.5032 32.9528 21.7584 32.9508H18.2419C17.4981 32.9553 16.7863 32.6483 16.2788 32.1043L15.6039 31.3653C15.4803 31.2289 15.3055 31.1501 15.1214 31.1476H3.03281V10.8444ZM38.6885 34.3869C38.6933 35.0913 38.4167 35.7685 37.9204 36.2683C37.4241 36.7681 36.7488 37.0492 36.0444 37.0492H3.95558C3.25118 37.0492 2.57623 36.7681 2.07963 36.2683C1.58334 35.7685 1.30702 35.0913 1.3115 34.3869V32.459H14.8342L15.3144 32.9797C16.0688 33.7964 17.1299 34.261 18.2416 34.2623H21.7581C22.8698 34.261 23.9309 33.7964 24.6856 32.9797L25.1658 32.459H38.6885V34.3869Z" fill="black"/>
<path d="M19.7934 10.4919H23.3824C23.7445 10.4919 24.0381 10.1983 24.0381 9.83616C24.0381 9.47403 23.7445 9.18042 23.3824 9.18042H19.7934C19.4313 9.18042 19.1377 9.47403 19.1377 9.83616C19.1377 10.1983 19.4313 10.4919 19.7934 10.4919Z" fill="black"/>
<path d="M26.9178 11.3115H19.7934C19.4313 11.3115 19.1377 11.6051 19.1377 11.9673C19.1377 12.3294 19.4313 12.623 19.7934 12.623H26.9178C27.2803 12.623 27.5736 12.3294 27.5736 11.9673C27.5736 11.6051 27.2803 11.3115 26.9178 11.3115Z" fill="black"/>
<path d="M26.9178 13.4426H19.7934C19.4313 13.4426 19.1377 13.7362 19.1377 14.0984C19.1377 14.4605 19.4313 14.7541 19.7934 14.7541H26.9178C27.2803 14.7541 27.5736 14.4605 27.5736 14.0984C27.5736 13.7362 27.2803 13.4426 26.9178 13.4426Z" fill="black"/>
<path d="M26.9178 15.5737H19.7934C19.4313 15.5737 19.1377 15.8673 19.1377 16.2295C19.1377 16.5916 19.4313 16.8852 19.7934 16.8852H26.9178C27.2803 16.8852 27.5736 16.5916 27.5736 16.2295C27.5736 15.8673 27.2803 15.5737 26.9178 15.5737Z" fill="black"/>
</g>
<defs>
<clipPath id="clip0_1_1083">
<rect width="40" height="40" fill="white"/>
</clipPath>
</defs>
</svg>
