<svg width="40" height="40" viewBox="0 0 40 40" fill="none" xmlns="http://www.w3.org/2000/svg">
<path d="M34.1083 18.2908V8.20249C34.1083 5.80482 32.1449 3.82445 29.747 3.82445H29.2038V3.14058C29.2038 1.42987 27.817 0.0430216 26.1063 0.0430216C24.3956 0.0430216 23.0087 1.42987 23.0087 3.14058V3.82445H11.651V3.14058C11.651 1.40612 10.2449 0 8.51044 0C6.77599 0 5.36987 1.40612 5.36987 3.14058V3.82445H4.9005C2.50274 3.82445 0.551453 5.80482 0.551453 8.20249V31.3674C0.551453 33.7651 2.50274 35.7465 4.9005 35.7465H18.5464C20.7962 38.4375 24.1216 39.9948 27.6292 40C34.1427 40 39.4486 34.6931 39.4486 28.1795C39.4487 24.051 37.2919 20.4035 34.1083 18.2908ZM24.7296 3.14058C24.7163 2.39114 25.313 1.77283 26.0625 1.75958C26.0745 1.75941 26.0866 1.75932 26.0986 1.75941C26.8551 1.75141 27.475 2.35818 27.483 3.11476C27.483 3.12337 27.483 3.13197 27.483 3.14058V6.49178H24.7296V3.14058ZM7.09073 3.14058C7.09891 2.36954 7.73064 1.75115 8.50167 1.75932C8.50305 1.75932 8.50434 1.75932 8.50563 1.75941C9.2795 1.75941 9.93016 2.36679 9.93016 3.14058V6.49178H7.09073V3.14058ZM2.27232 8.20249C2.27232 6.75361 3.45162 5.54531 4.9005 5.54531H5.36987V7.38801C5.36987 7.86314 5.7667 8.21265 6.24192 8.21265H10.7695C11.2446 8.21265 11.651 7.86314 11.651 7.38801V5.54531H23.0087V7.38801C22.996 7.8307 23.3445 8.19991 23.7872 8.21265C23.8031 8.21308 23.8189 8.21308 23.8347 8.21265H28.3623C28.8119 8.22762 29.1885 7.87527 29.2035 7.4257C29.2039 7.41313 29.204 7.40057 29.2038 7.38801V5.54531H29.747C31.2057 5.56002 32.3819 6.7438 32.3874 8.20249V10.966H2.27232V8.20249ZM4.9005 34.0256C3.45162 34.0256 2.27232 32.8163 2.27232 31.3674V12.6869H32.3874V17.3551C30.8897 16.6974 29.2715 16.3583 27.6358 16.3589C21.1223 16.3589 15.8197 21.6735 15.8197 28.1871C15.8165 30.2335 16.3454 32.2454 17.3546 34.0256H4.9005ZM27.6292 38.2638C22.0555 38.2638 17.5371 33.7454 17.5371 28.1717C17.5371 22.598 22.0555 18.0796 27.6292 18.0796C33.2029 18.0796 37.7213 22.598 37.7213 28.1717V28.1718C37.715 33.7429 33.2004 38.2575 27.6292 38.2638Z" fill="black"/>
</svg>
