<svg width="40" height="40" viewBox="0 0 40 40" fill="none" xmlns="http://www.w3.org/2000/svg">
<g clip-path="url(#clip0_1_1055)">
<path d="M20.0831 6.99243C12.911 6.99243 7.07568 12.8274 7.07568 19.9999C7.07568 27.1721 12.911 33.0074 20.0831 33.0074C27.2557 33.0074 33.0906 27.1721 33.0906 19.9999C33.0906 12.8274 27.2557 6.99243 20.0831 6.99243ZM13.5364 29.5184V24.9589C13.54 23.556 14.5874 22.3746 15.9797 22.2031C17.8199 24.3477 21.0016 24.7124 23.2791 23.0399C23.6122 22.7962 23.9163 22.5156 24.1855 22.2031C25.5785 22.3746 26.6259 23.5556 26.6299 24.9589V29.5184C24.7204 30.8006 22.5087 31.5525 20.0831 31.5525C17.6576 31.5525 15.4459 30.8006 13.5364 29.5184ZM28.0847 28.3325V24.9589C28.0786 22.6222 26.1845 20.7301 23.8474 20.7273C23.6161 20.7273 23.3984 20.8378 23.2613 21.0242C22.5183 22.0358 21.3384 22.6336 20.0831 22.6336C18.8279 22.6336 17.6477 22.0358 16.9046 21.0242C16.7679 20.8378 16.5502 20.7273 16.3189 20.7273C13.9822 20.7301 12.0877 22.6222 12.0816 24.9589V28.3325C9.812 26.1545 8.52802 23.1454 8.52625 19.9999C8.52625 13.6297 13.7108 8.44726 20.081 8.44726C26.4512 8.44726 31.6386 13.6301 31.6386 19.9999C31.6376 23.1454 30.3539 26.1545 28.0847 28.3325Z" fill="black"/>
<path d="M37.7385 22.0405C37.9143 20.4187 37.8717 18.7806 37.6124 17.1699L39.6256 15.2391C39.8458 15.0282 39.9108 14.7021 39.7886 14.4226L37.4966 9.18329C37.373 8.90056 37.0846 8.72652 36.7766 8.74961L33.9899 8.95455C32.9869 7.66382 31.7966 6.53008 30.4587 5.59098L30.5404 2.80707C30.5496 2.49877 30.3631 2.21818 30.0754 2.107L24.7427 0.048727C24.4561 -0.0617344 24.1308 0.0196022 23.9301 0.252246L22.1243 2.34498C20.5022 2.16952 18.8638 2.21178 17.253 2.47107L15.3223 0.457896C15.1113 0.237684 14.7852 0.172685 14.5057 0.294868L9.26677 2.58756C8.98405 2.71117 8.81001 2.99958 8.83274 3.30716L9.03768 6.09427C7.74695 7.0973 6.61321 8.28752 5.67411 9.62513L2.8902 9.54344C2.58154 9.53314 2.30059 9.71997 2.19013 10.0087L0.132211 15.3411C0.0213944 15.6277 0.102731 15.9527 0.335375 16.1537L2.42846 17.9595C2.25264 19.5812 2.29491 21.2193 2.55455 22.8301L0.541025 24.7608C0.320812 24.9718 0.255814 25.2979 0.378352 25.5774L2.67069 30.8163C2.7943 31.0991 3.0827 31.2731 3.39065 31.2504L6.1774 31.0454C7.18043 32.3361 8.37065 33.4699 9.70826 34.409L9.62657 37.1929C9.61733 37.5012 9.80381 37.7818 10.0919 37.893L15.4246 39.9512C15.7112 40.0621 16.0365 39.9807 16.2372 39.7477L18.0426 37.6546C19.6644 37.8305 21.3025 37.7882 22.9132 37.5289L24.844 39.5421C25.0553 39.7623 25.381 39.8273 25.6605 39.7051L30.8998 37.4128C31.1822 37.2892 31.3562 37.0007 31.3335 36.6932L31.1286 33.9064C32.4193 32.903 33.553 31.7128 34.4921 30.3748L37.276 30.4565C37.5843 30.4654 37.8649 30.2789 37.9761 29.9912L40.0344 24.6585C40.1448 24.3719 40.0635 24.0469 39.8309 23.8459L37.7385 22.0405ZM36.804 28.9871L34.138 28.9086C33.8869 28.9008 33.65 29.0234 33.5111 29.2326C32.5479 30.6792 31.3399 31.9476 29.9419 32.9804C29.7412 33.1289 29.6304 33.3697 29.6489 33.6187L29.8449 36.2861L25.5426 38.1682L23.6957 36.2424C23.5266 36.0663 23.2805 35.9867 23.04 36.0307C21.3234 36.3447 19.5688 36.3902 17.8384 36.165C17.5958 36.1334 17.3535 36.2257 17.1937 36.4111L15.4704 38.409L11.096 36.7212L11.1741 34.0549C11.1816 33.8045 11.0594 33.5676 10.8509 33.4283C9.40387 32.4647 8.13552 31.2571 7.10265 29.8591C6.95418 29.6584 6.71337 29.548 6.46439 29.5661L3.79697 29.7621L1.91487 25.4598L3.84031 23.6129C4.01683 23.4438 4.09639 23.1977 4.05235 22.9572C3.73801 21.2406 3.69291 19.486 3.91809 17.7556C3.9497 17.513 3.857 17.2708 3.67195 17.1109L1.6737 15.3869L3.36188 11.0125L6.02822 11.091C6.27863 11.0981 6.51553 10.9759 6.65477 10.767C7.61837 9.32039 8.82599 8.05239 10.2243 7.01917C10.425 6.87105 10.5355 6.62989 10.517 6.38126L10.3209 3.71349L14.6233 1.83138L16.4702 3.75718C16.6393 3.93335 16.8858 4.01291 17.1259 3.96922C18.8428 3.65453 20.5981 3.60907 22.3289 3.83461C22.5715 3.86622 22.8138 3.77352 22.9736 3.58847L24.6973 1.59057L29.0713 3.27875L28.9928 5.94474C28.9854 6.1955 29.1076 6.43241 29.3164 6.57164C30.7631 7.53489 32.0314 8.74286 33.0643 10.1409C33.2128 10.3415 33.4536 10.452 33.7026 10.4339L36.37 10.2378L38.2524 14.5401L36.3266 16.3871C36.1505 16.5561 36.0705 16.8023 36.1146 17.0427C36.4289 18.7593 36.4744 20.5139 36.2492 22.2444C36.2176 22.487 36.3099 22.7288 36.4953 22.8887L38.4925 24.6127L36.804 28.9871Z" fill="black"/>
<path d="M20.0831 11.3711C17.5315 11.3711 15.4629 13.4393 15.4629 15.9909C15.4629 18.5429 17.5315 20.6111 20.0831 20.6111C22.6347 20.6111 24.7033 18.5426 24.7033 15.9909C24.7005 13.4407 22.6337 11.3739 20.0831 11.3711ZM20.0831 19.1563C18.3349 19.1563 16.9177 17.7391 16.9177 15.9909C16.9177 14.2427 18.3349 12.8256 20.0831 12.8256C21.8313 12.8256 23.2485 14.2427 23.2485 15.9909C23.2463 17.7384 21.8306 19.1542 20.0831 19.1563Z" fill="black"/>
</g>
<defs>
<clipPath id="clip0_1_1055">
<rect width="40" height="40" fill="white"/>
</clipPath>
</defs>
</svg>
