<svg width="40" height="40" viewBox="0 0 40 40" fill="none" xmlns="http://www.w3.org/2000/svg">
<path d="M31.7238 23.2672L26.9291 19.6791V11.7331C26.9291 8.77945 25.5801 3.00687 20.4508 0.107565C20.2001 -0.0358551 19.8918 -0.0358551 19.641 0.107565C14.5117 3.00687 13.1481 8.77945 13.1481 11.7331C13.1481 11.7516 13.1513 11.7701 13.1523 11.7887C13.1773 12.1672 13.18 16.8565 13.18 19.7002L8.30269 23.2603C8.08479 23.4155 7.95275 23.6643 7.9469 23.9319V26.6576C7.96186 27.1239 8.34464 27.494 8.81132 27.493H14.2119L14.6509 29.5767C14.8984 30.7315 15.9134 31.5605 17.0943 31.5725H23.0265C24.2074 31.5605 25.2224 30.7315 25.4699 29.5767L25.9089 27.493H31.2262C31.6929 27.494 32.076 27.1239 32.0909 26.6576V23.9319C32.077 23.6659 31.9417 23.4207 31.7238 23.2672ZM25.264 19.334H14.8464C14.8464 18.5876 14.8464 17.8601 14.8457 17.1694H25.264V19.334ZM20.041 1.80162C24.1664 4.39359 25.264 9.22142 25.264 11.7331V15.5043H14.8441C14.8408 13.5068 14.8239 12.0449 14.8083 11.7116C14.8148 9.1941 15.9271 4.38611 20.041 1.80162ZM23.8409 29.231C23.7596 29.6183 23.4223 29.8983 23.0265 29.9074H17.0943C16.6985 29.8983 16.3612 29.6183 16.2799 29.231L15.9144 27.493H24.2064L23.8409 29.231ZM30.4258 25.8279H9.61201V24.354L14.2265 20.9991H25.9525L30.4258 24.3469V25.8279Z" fill="black"/>
<path d="M20.0188 32.5249C19.559 32.5249 19.1863 32.8976 19.1863 33.3575V39.1674C19.1863 39.6273 19.559 40 20.0188 40C20.4784 40 20.8514 39.6273 20.8514 39.1674V33.3575C20.8514 32.8976 20.4784 32.5249 20.0188 32.5249Z" fill="black"/>
<path d="M25.93 32.5249C25.4701 32.5249 25.0974 32.8976 25.0974 33.3575V35.9312C25.0974 36.3911 25.4701 36.7638 25.93 36.7638C26.3895 36.7638 26.7625 36.3911 26.7625 35.9312V33.3575C26.7625 32.8976 26.3895 32.5249 25.93 32.5249Z" fill="black"/>
<path d="M14.191 32.5249C13.7311 32.5249 13.3584 32.8976 13.3584 33.3575V35.9312C13.3584 36.3911 13.7311 36.7638 14.191 36.7638C14.6505 36.7638 15.0235 36.3911 15.0235 35.9312V33.3575C15.0235 32.8976 14.6505 32.5249 14.191 32.5249Z" fill="black"/>
<path d="M17.8168 13.0004C19.0546 14.2301 21.0544 14.2255 22.2863 12.9897C23.5179 11.7539 23.5163 9.7538 22.2827 8.52025C21.0488 7.28638 19.0488 7.28476 17.8133 8.51635C16.5774 9.74827 16.5726 11.7483 17.8022 12.9861C17.8071 12.9907 17.812 12.9955 17.8168 13.0004ZM18.9941 9.69038C19.5831 9.10174 20.5379 9.10174 21.1266 9.69038C21.7155 10.2793 21.7155 11.2342 21.1266 11.8231C20.5379 12.4118 19.5831 12.4118 18.9941 11.8231C18.4052 11.2378 18.4022 10.2862 18.9873 9.69721L18.9941 9.69038Z" fill="black"/>
</svg>
