<svg width="40" height="40" viewBox="0 0 40 40" fill="none" xmlns="http://www.w3.org/2000/svg">
<path fill-rule="evenodd" clip-rule="evenodd" d="M20 19.4444C23.0682 19.4444 25.5555 16.9571 25.5555 13.8888C25.5555 10.8206 23.0682 8.33325 20 8.33325C16.9318 8.33325 14.4445 10.8206 14.4445 13.8888C14.4445 16.9571 16.9318 19.4444 20 19.4444ZM20 17.7778C22.1478 17.7778 23.8888 16.0366 23.8888 13.8888C23.8888 11.741 22.1478 9.99992 20 9.99992C17.8522 9.99992 16.1111 11.741 16.1111 13.8888C16.1111 16.0366 17.8522 17.7778 20 17.7778Z" fill="black"/>
<path fill-rule="evenodd" clip-rule="evenodd" d="M12.5 17.4999C12.5 19.8011 10.6345 21.6666 8.33329 21.6666C6.03211 21.6666 4.16663 19.8011 4.16663 17.4999C4.16663 15.1987 6.03211 13.3333 8.33329 13.3333C10.6345 13.3333 12.5 15.1987 12.5 17.4999ZM10.8333 17.4999C10.8333 18.8806 9.71401 19.9999 8.33329 19.9999C6.95258 19.9999 5.83329 18.8806 5.83329 17.4999C5.83329 16.1192 6.95258 14.9999 8.33329 14.9999C9.71401 14.9999 10.8333 16.1192 10.8333 17.4999Z" fill="black"/>
<path fill-rule="evenodd" clip-rule="evenodd" d="M2.5 31.6666V28.3333C2.5 25.1116 5.11167 22.4999 8.33333 22.4999C10.3747 22.4999 12.1712 23.5486 13.2135 25.1364C14.4136 22.5931 17.0013 20.8333 20 20.8333C22.9987 20.8333 25.5863 22.5931 26.7865 25.1364C27.8288 23.5486 29.6253 22.4999 31.6667 22.4999C34.8883 22.4999 37.5 25.1116 37.5 28.3333V31.6666C37.5 32.1268 37.1268 32.4999 36.6667 32.4999H3.33333C2.8731 32.4999 2.5 32.1268 2.5 31.6666ZM4.16667 28.3333C4.16667 26.0321 6.03215 24.1666 8.33333 24.1666C10.6345 24.1666 12.5 26.0321 12.5 28.3333V30.8333H4.16667V28.3333ZM35.8333 30.8333V28.3333C35.8333 26.0321 33.9678 24.1666 31.6667 24.1666C29.3655 24.1666 27.5 26.0321 27.5 28.3333V30.8333H35.8333ZM25.8333 30.8333V28.3333C25.8333 25.1116 23.2217 22.4999 20 22.4999C16.7783 22.4999 14.1667 25.1116 14.1667 28.3333V30.8333H25.8333Z" fill="black"/>
<path fill-rule="evenodd" clip-rule="evenodd" d="M35.8333 17.4999C35.8333 19.8011 33.9678 21.6666 31.6667 21.6666C29.3655 21.6666 27.5 19.8011 27.5 17.4999C27.5 15.1987 29.3655 13.3333 31.6667 13.3333C33.9678 13.3333 35.8333 15.1987 35.8333 17.4999ZM34.1667 17.4999C34.1667 18.8806 33.0473 19.9999 31.6667 19.9999C30.286 19.9999 29.1667 18.8806 29.1667 17.4999C29.1667 16.1192 30.286 14.9999 31.6667 14.9999C33.0473 14.9999 34.1667 16.1192 34.1667 17.4999Z" fill="black"/>
</svg>
