<svg width="35" height="36" viewBox="0 0 35 36" fill="none" xmlns="http://www.w3.org/2000/svg">
<path fill-rule="evenodd" clip-rule="evenodd" d="M17.5 35.5C27.165 35.5 35 27.665 35 18C35 8.33502 27.165 0.5 17.5 0.5C7.83502 0.5 0 8.33502 0 18C0 27.665 7.83502 35.5 17.5 35.5Z" fill="#675DA9"/>
<rect y="0.5" width="35" height="35" rx="5" fill="#675DA9"/>
<path d="M27.3271 13.6L27.3209 13.5753C26.8246 11.5518 24.5868 9.38059 22.5318 8.92887L22.5086 8.92406C19.1848 8.28465 15.8145 8.28465 12.4913 8.92406L12.4675 8.92887C10.4131 9.38059 8.17538 11.5518 7.67833 13.5753L7.67288 13.6C7.05924 16.4258 7.05924 19.2915 7.67288 22.1173L7.67833 22.142C8.15417 24.0791 10.2253 26.1506 12.2036 26.7203V28.979C12.2036 29.7965 13.1915 30.198 13.7534 29.6081L16.0228 27.2293C16.515 27.257 17.0075 27.2725 17.5 27.2725C19.1732 27.2725 20.847 27.113 22.5086 26.7933L22.5318 26.7885C24.5868 26.3368 26.8246 24.1655 27.3209 22.1421L27.3271 22.1173C27.9407 19.2915 27.9407 16.4258 27.3271 13.6ZM25.5312 21.7075C25.1998 23.0276 23.5007 24.6687 22.1507 24.9719C20.3833 25.3108 18.602 25.4557 16.8225 25.406C16.7871 25.405 16.753 25.4188 16.7284 25.4444C16.4758 25.7058 15.0713 27.1597 15.0713 27.1597L13.3088 28.9837C13.18 29.1192 12.9536 29.0271 12.9536 28.84V25.0983C12.9536 25.0365 12.9098 24.984 12.8496 24.9721L12.8486 24.9719C11.4986 24.6687 9.80016 23.0275 9.46811 21.7074C8.91584 19.1532 8.91584 16.5639 9.46811 14.0097C9.80016 12.6896 11.4986 11.0485 12.8486 10.7453C15.9352 10.1533 19.0648 10.1533 22.1507 10.7453C23.5014 11.0485 25.1998 12.6896 25.5312 14.0097C26.0841 16.564 26.0841 19.1533 25.5312 21.7075Z" fill="white"/>
<path d="M20.4367 23.4345C20.2292 23.371 20.0314 23.3283 19.8477 23.2514C17.9443 22.4551 16.1926 21.4278 14.805 19.853C14.0159 18.9575 13.3983 17.9464 12.8763 16.8765C12.6287 16.3691 12.4201 15.8418 12.2074 15.318C12.0135 14.8403 12.2991 14.3468 12.5999 13.9868C12.8821 13.649 13.2452 13.3905 13.6385 13.2C13.9454 13.0513 14.2482 13.137 14.4724 13.3994C14.9571 13.9666 15.4022 14.5628 15.7627 15.2203C15.9844 15.6248 15.9235 16.1191 15.5218 16.3943C15.4242 16.4612 15.3352 16.5397 15.2442 16.6153C15.1645 16.6815 15.0894 16.7484 15.0347 16.8381C14.9348 17.0021 14.93 17.1956 14.9944 17.3739C15.4898 18.7468 16.3248 19.8144 17.6951 20.3893C17.9144 20.4813 18.1346 20.5885 18.3872 20.5588C18.8103 20.5089 18.9473 20.041 19.2437 19.7965C19.5335 19.5576 19.9038 19.5544 20.216 19.7536C20.5282 19.9528 20.8308 20.1667 21.1316 20.3829C21.4269 20.5951 21.7209 20.8026 21.9933 21.0445C22.2552 21.2771 22.3454 21.5822 22.1979 21.8979C21.9279 22.476 21.5351 22.9569 20.9683 23.2639C20.8083 23.3504 20.6172 23.3785 20.4367 23.4345C20.6172 23.3785 20.2292 23.3709 20.4367 23.4345ZM17.5052 12.539C19.9949 12.6093 22.0398 14.2755 22.478 16.7575C22.5526 17.1804 22.5792 17.6128 22.6124 18.042C22.6264 18.2226 22.525 18.3941 22.3318 18.3964C22.1322 18.3988 22.0424 18.2305 22.0295 18.05C22.0038 17.6927 21.986 17.3339 21.9372 16.9796C21.6795 15.1094 20.2006 13.5622 18.3546 13.2302C18.0768 13.1802 17.7925 13.1671 17.5111 13.1373C17.3332 13.1185 17.1002 13.1076 17.0608 12.8846C17.0278 12.6977 17.1842 12.5488 17.3608 12.5393C17.4088 12.5366 17.457 12.5388 17.5052 12.539C19.9949 12.6093 17.457 12.5388 17.5052 12.539Z" fill="white"/>
<path d="M21.2888 17.4849C21.2847 17.5162 21.2825 17.5899 21.2643 17.6594C21.1982 17.9114 20.8193 17.943 20.732 17.6886C20.7062 17.6131 20.7023 17.5272 20.7021 17.446C20.7013 16.9142 20.5866 16.383 20.3207 15.9204C20.0474 15.4449 19.6298 15.0451 19.1399 14.8033C18.8438 14.657 18.5234 14.5661 18.1988 14.5119C18.0569 14.4883 17.9136 14.4739 17.771 14.4539C17.5982 14.4297 17.506 14.3187 17.5141 14.147C17.5218 13.9861 17.6384 13.8704 17.8122 13.8803C18.3836 13.913 18.9355 14.0375 19.4434 14.3088C20.4764 14.8604 21.0664 15.7311 21.2387 16.8937C21.2464 16.9464 21.259 16.9986 21.2629 17.0514C21.2727 17.182 21.2788 17.3127 21.2888 17.4849C21.2847 17.5162 21.2788 17.3127 21.2888 17.4849Z" fill="white"/>
<path d="M19.7402 17.4241C19.5319 17.4279 19.4204 17.3117 19.3989 17.1191C19.384 16.9848 19.3722 16.8487 19.3404 16.7181C19.2778 16.4608 19.1422 16.2224 18.9276 16.0647C18.8263 15.9903 18.7115 15.936 18.5912 15.901C18.4384 15.8566 18.2797 15.8688 18.1273 15.8311C17.9617 15.7902 17.8702 15.655 17.8962 15.4984C17.9199 15.3559 18.0574 15.2446 18.2118 15.2559C19.1771 15.3262 19.8669 15.8294 19.9654 16.9753C19.9724 17.0561 19.9805 17.1416 19.9627 17.2189C19.9323 17.3513 19.835 17.4177 19.7402 17.4241C19.835 17.4177 19.5319 17.4279 19.7402 17.4241Z" fill="white"/>
</svg>
